<mxfile host="Electron" modified="2024-07-07T13:11:25.009Z" agent="Mozilla/5.0 (Windows NT 10.0; Win64; x64) AppleWebKit/537.36 (KHTML, like Gecko) draw.io/24.6.4 Chrome/124.0.6367.207 Electron/30.0.6 Safari/537.36" etag="Ill_MbzyC3x1UfDMdSpN" version="24.6.4" type="device">
  <diagram id="C5RBs43oDa-KdzZeNtuy" name="Page-1">
    <mxGraphModel dx="834" dy="1251" grid="1" gridSize="10" guides="1" tooltips="1" connect="1" arrows="1" fold="1" page="1" pageScale="1" pageWidth="827" pageHeight="1169" math="0" shadow="0">
      <root>
        <mxCell id="WIyWlLk6GJQsqaUBKTNV-0" />
        <mxCell id="WIyWlLk6GJQsqaUBKTNV-1" parent="WIyWlLk6GJQsqaUBKTNV-0" />
        <mxCell id="2CXnayc6NnahpAtSQl0N-34" value="&lt;div style=&quot;font-size: 16px;&quot;&gt;&lt;span style=&quot;background-color: initial; font-size: 16px;&quot;&gt;&lt;b style=&quot;font-size: 16px;&quot;&gt;Messung&lt;/b&gt;&lt;/span&gt;&lt;/div&gt;" style="rounded=0;whiteSpace=wrap;html=1;align=center;fontSize=16;flipV=0;" parent="WIyWlLk6GJQsqaUBKTNV-1" vertex="1">
          <mxGeometry x="390" y="400" width="110" height="60" as="geometry" />
        </mxCell>
        <mxCell id="2CXnayc6NnahpAtSQl0N-47" value="" style="edgeStyle=orthogonalEdgeStyle;rounded=0;orthogonalLoop=1;jettySize=auto;html=1;dashed=1;exitX=0.5;exitY=1;exitDx=0;exitDy=0;entryX=0.499;entryY=-0.046;entryDx=0;entryDy=0;entryPerimeter=0;fontSize=16;" parent="WIyWlLk6GJQsqaUBKTNV-1" source="eH-cV_e9smiTX8dmG5Cn-54" target="eH-cV_e9smiTX8dmG5Cn-55" edge="1">
          <mxGeometry relative="1" as="geometry">
            <mxPoint x="442.88" y="836.0400000000018" as="targetPoint" />
            <mxPoint x="442.88" y="791.0400000000018" as="sourcePoint" />
          </mxGeometry>
        </mxCell>
        <mxCell id="eH-cV_e9smiTX8dmG5Cn-52" value="&lt;div style=&quot;font-size: 16px;&quot;&gt;&lt;b style=&quot;font-size: 16px;&quot;&gt;Kalibration&lt;/b&gt;&lt;/div&gt;" style="rounded=0;whiteSpace=wrap;html=1;align=center;fontSize=16;flipV=0;" parent="WIyWlLk6GJQsqaUBKTNV-1" vertex="1">
          <mxGeometry x="386.71500000000003" y="500" width="116.57" height="60" as="geometry" />
        </mxCell>
        <mxCell id="eH-cV_e9smiTX8dmG5Cn-54" value="&lt;span style=&quot;text-wrap: nowrap; font-size: 16px;&quot;&gt;&lt;b&gt;Plotten&lt;/b&gt;&lt;/span&gt;" style="rounded=0;whiteSpace=wrap;html=1;fontSize=16;flipV=0;" parent="WIyWlLk6GJQsqaUBKTNV-1" vertex="1">
          <mxGeometry x="385" y="600" width="120" height="60" as="geometry" />
        </mxCell>
        <mxCell id="eH-cV_e9smiTX8dmG5Cn-55" value="&lt;span style=&quot;text-wrap: nowrap; font-size: 16px;&quot;&gt;&lt;b&gt;Speichern&lt;/b&gt;&lt;/span&gt;" style="rounded=0;whiteSpace=wrap;html=1;fontSize=16;flipV=0;" parent="WIyWlLk6GJQsqaUBKTNV-1" vertex="1">
          <mxGeometry x="385" y="700" width="120" height="60" as="geometry" />
        </mxCell>
        <mxCell id="2CXnayc6NnahpAtSQl0N-0" value="&lt;b&gt;Start GUI&lt;/b&gt;" style="rounded=0;whiteSpace=wrap;html=1;fontSize=16;flipV=0;" parent="WIyWlLk6GJQsqaUBKTNV-1" vertex="1">
          <mxGeometry x="395" y="100" width="100" height="50" as="geometry" />
        </mxCell>
        <mxCell id="eH-cV_e9smiTX8dmG5Cn-11" value="" style="edgeStyle=orthogonalEdgeStyle;rounded=0;orthogonalLoop=1;jettySize=auto;html=1;fontSize=16;" parent="WIyWlLk6GJQsqaUBKTNV-1" edge="1">
          <mxGeometry relative="1" as="geometry">
            <mxPoint x="442.91703703703695" y="249.99999999999955" as="sourcePoint" />
            <mxPoint x="442.88" y="289.99999999999955" as="targetPoint" />
          </mxGeometry>
        </mxCell>
        <mxCell id="N3hAC_Chdb1pGLacQPsX-3" value="Kalibrationsdaten erzeugen" style="shape=table;startSize=30;container=1;collapsible=0;childLayout=tableLayout;strokeColor=default;fontSize=16;fontStyle=1;flipV=0;" vertex="1" parent="WIyWlLk6GJQsqaUBKTNV-1">
          <mxGeometry x="273.435" y="290" width="343.13" height="70" as="geometry" />
        </mxCell>
        <mxCell id="N3hAC_Chdb1pGLacQPsX-4" value="" style="shape=tableRow;horizontal=0;startSize=0;swimlaneHead=0;swimlaneBody=0;strokeColor=inherit;top=0;left=0;bottom=0;right=0;collapsible=0;dropTarget=0;fillColor=none;points=[[0,0.5],[1,0.5]];portConstraint=eastwest;fontSize=16;" vertex="1" parent="N3hAC_Chdb1pGLacQPsX-3">
          <mxGeometry y="30" width="343.13" height="40" as="geometry" />
        </mxCell>
        <mxCell id="N3hAC_Chdb1pGLacQPsX-5" value="Eigene Messung" style="shape=partialRectangle;html=1;whiteSpace=wrap;connectable=0;strokeColor=inherit;overflow=hidden;fillColor=none;top=0;left=0;bottom=0;right=0;pointerEvents=1;fontSize=16;" vertex="1" parent="N3hAC_Chdb1pGLacQPsX-4">
          <mxGeometry width="114" height="40" as="geometry">
            <mxRectangle width="114" height="40" as="alternateBounds" />
          </mxGeometry>
        </mxCell>
        <mxCell id="N3hAC_Chdb1pGLacQPsX-6" value="S-Parameter wÃ¤hlen" style="shape=partialRectangle;html=1;whiteSpace=wrap;connectable=0;strokeColor=inherit;overflow=hidden;fillColor=none;top=0;left=0;bottom=0;right=0;pointerEvents=1;fontSize=16;" vertex="1" parent="N3hAC_Chdb1pGLacQPsX-4">
          <mxGeometry x="114" width="115" height="40" as="geometry">
            <mxRectangle width="115" height="40" as="alternateBounds" />
          </mxGeometry>
        </mxCell>
        <mxCell id="N3hAC_Chdb1pGLacQPsX-7" value="Voreingestellte Kalibrierung" style="shape=partialRectangle;html=1;whiteSpace=wrap;connectable=0;strokeColor=inherit;overflow=hidden;fillColor=none;top=0;left=0;bottom=0;right=0;pointerEvents=1;fontSize=16;" vertex="1" parent="N3hAC_Chdb1pGLacQPsX-4">
          <mxGeometry x="229" width="114" height="40" as="geometry">
            <mxRectangle width="114" height="40" as="alternateBounds" />
          </mxGeometry>
        </mxCell>
        <mxCell id="N3hAC_Chdb1pGLacQPsX-16" value="&lt;div style=&quot;font-size: 16px;&quot;&gt;&lt;span style=&quot;background-color: initial; font-size: 16px;&quot;&gt;&lt;b style=&quot;font-size: 16px;&quot;&gt;Initialisieren&lt;/b&gt;&lt;/span&gt;&lt;/div&gt;" style="rounded=0;whiteSpace=wrap;html=1;align=center;fontSize=16;flipV=0;" vertex="1" parent="WIyWlLk6GJQsqaUBKTNV-1">
          <mxGeometry x="390" y="190" width="110" height="60" as="geometry" />
        </mxCell>
        <mxCell id="N3hAC_Chdb1pGLacQPsX-18" value="" style="edgeStyle=orthogonalEdgeStyle;rounded=0;orthogonalLoop=1;jettySize=auto;html=1;fontSize=16;" edge="1" parent="WIyWlLk6GJQsqaUBKTNV-1">
          <mxGeometry relative="1" as="geometry">
            <mxPoint x="441.48703703703694" y="150.00000000000045" as="sourcePoint" />
            <mxPoint x="441.45" y="190.00000000000045" as="targetPoint" />
          </mxGeometry>
        </mxCell>
        <mxCell id="N3hAC_Chdb1pGLacQPsX-20" value="" style="edgeStyle=orthogonalEdgeStyle;rounded=0;orthogonalLoop=1;jettySize=auto;html=1;fontSize=16;" edge="1" parent="WIyWlLk6GJQsqaUBKTNV-1">
          <mxGeometry relative="1" as="geometry">
            <mxPoint x="442.90703703703696" y="359.99999999999955" as="sourcePoint" />
            <mxPoint x="442.87" y="399.99999999999955" as="targetPoint" />
          </mxGeometry>
        </mxCell>
        <mxCell id="N3hAC_Chdb1pGLacQPsX-21" value="" style="edgeStyle=orthogonalEdgeStyle;rounded=0;orthogonalLoop=1;jettySize=auto;html=1;fontSize=16;" edge="1" parent="WIyWlLk6GJQsqaUBKTNV-1">
          <mxGeometry relative="1" as="geometry">
            <mxPoint x="442.90703703703696" y="460" as="sourcePoint" />
            <mxPoint x="442.87" y="500" as="targetPoint" />
          </mxGeometry>
        </mxCell>
        <mxCell id="N3hAC_Chdb1pGLacQPsX-22" value="" style="edgeStyle=orthogonalEdgeStyle;rounded=0;orthogonalLoop=1;jettySize=auto;html=1;fontSize=16;" edge="1" parent="WIyWlLk6GJQsqaUBKTNV-1">
          <mxGeometry relative="1" as="geometry">
            <mxPoint x="442.90703703703696" y="560" as="sourcePoint" />
            <mxPoint x="442.87" y="600" as="targetPoint" />
          </mxGeometry>
        </mxCell>
      </root>
    </mxGraphModel>
  </diagram>
</mxfile>
